<?xml version="1.0" encoding="utf-8"?>
<!-- Generator: Adobe Illustrator 15.1.0, SVG Export Plug-In . SVG Version: 6.00 Build 0)  -->
<!DOCTYPE svg PUBLIC "-//W3C//DTD SVG 1.1//EN" "http://www.w3.org/Graphics/SVG/1.1/DTD/svg11.dtd">
<svg version="1.1" id="Layer_1" xmlns="http://www.w3.org/2000/svg" xmlns:xlink="http://www.w3.org/1999/xlink" x="0px" y="0px"
	 width="400px" height="400px" viewBox="0 0 400 400" enable-background="new 0 0 400 400" xml:space="preserve">
<g>
	<polygon fill="#242422" points="117.646,146.526 112.478,144.228 112.478,112.079 159.556,118.585 180.417,88.156 111.521,80.694 
		80.712,108.25 80.712,166.237 110.758,177.145 134.87,152.458 140.994,156.286 140.994,192.455 65.026,185.413 65.026,106.91 
		72.297,106.91 88.944,78.015 65.026,78.015 65.026,64.926 74.784,68.944 91.246,44.066 60.625,31.628 33.258,56.313 33.258,78.015 
		28.47,78.015 16.227,106.91 33.258,106.91 33.258,215.229 142.333,224.605 172.762,196.092 172.762,136 143.096,121.457 	"/>
	<polygon fill="#242422" points="186.14,141.215 180.417,173.173 238.803,173.173 246.439,141.215 	"/>
</g>
<path fill="#242422" d="M287.041,218.459l-31.766,6.146V113.8l-17.992,12.247v-24.304l49.758-35.787V218.459z"/>
<path fill="#242422" d="M384.838,149.348l-8.231,28.896h-8.04v30.235l-30.808,2.841v-33.076h-50.718l51.594-105.967l29.932,1.669
	v75.401H384.838z M323.212,149.348h14.547v-30.619L323.212,149.348z"/>
<g>
	<g>
		<path fill="#242422" d="M134.951,287.224l-10.966,7.256l-7.71-1.544v5.826l-9.48,5.027v-12.396l-6.57-1.085l6.57-6.109v-22.331
			l-8.51-2.06l6.509-8.851l11.481,3.428v1.54l4.111-4.91l14.565,3.37V287.224z M116.275,263.35v19.479l9.196,1.826v-21.818
			l-7.083-1.94L116.275,263.35z"/>
		<path fill="#242422" d="M159.849,266.891l-5.94,7.139l-2.684-1.599v12.45l8.338,2.058l-7.311,7.425l-10.508-2.227V272.09
			l-5.14-1.885l5.884-8.682l6.739,3.77l2.625-3.828L159.849,266.891z"/>
		<path fill="#242422" d="M183.607,286.996l-7.483,7.483l-15.135-2.515v-24.217l10.394-6.511l11.479,7.71l-11.479,15.934
			L183.607,286.996z M173.21,274.201l-2.739-1.885v5.6L173.21,274.201z"/>
		<path fill="#242422" d="M224.779,286.139l-5.939,8.568l-6.738-3.658V272.83l-4.055-1.484v22.162h-9.423v-20.733l-3.941-1.429
			v22.162h-9.481v-22.104l-3.714-1.657l5.939-8.396l6.398,4.168l2.797-4.112l10.397,4.229l2.569-4.172l11.88,4.055v19.534
			L224.779,286.139z"/>
		<path fill="#242422" d="M240.029,286.711l-6.057,7.996l-6.911-3.598v-19.705l-3.425-1.199l5.768-8.11l7.139,4.225v18.905
			L240.029,286.711z M237.572,257.354l-6.455,4.969l-6.34-4.969l6.283-5.428L237.572,257.354z"/>
		<path fill="#242422" d="M269.441,287.852l-6.055,6.855l-6.053-3.885l-3.428,3.657l-11.709-3.259v-20.503l-3.426-2.171l6.054-7.252
			l6.967,3.37v19.989l4.912,1.484v-21.532l9.596-3.542v24.96L269.441,287.852z"/>
		<path fill="#242422" d="M311.586,286.139l-5.938,8.568l-6.739-3.658V272.83l-4.054-1.484v22.162h-9.425v-20.733l-3.94-1.429
			v22.162h-9.48v-22.104l-3.712-1.657l5.938-8.396l6.397,4.168l2.798-4.112l10.396,4.229l2.57-4.172l11.88,4.055v19.534
			L311.586,286.139z"/>
	</g>
</g>
<g>
	<path fill="#242422" d="M32.11,293.383l8.314-3.935l2.405,2.63l-4.668,7.918l8.538-3.693l2.493,2.727l-14.876,6.381l-1.711-1.871
		l5.579-9.641l-10.082,4.721l-1.711-1.87l7.673-14.251l2.494,2.725L32.11,293.383z"/>
	<path fill="#242422" d="M51.293,317.848c-2.155,0.143-4.09-0.516-5.81-1.98c-1.72-1.467-2.677-3.273-2.875-5.426
		c-0.195-2.15,0.435-4.078,1.89-5.787c1.457-1.707,3.262-2.635,5.417-2.781c2.154-0.145,4.092,0.517,5.81,1.982
		c1.719,1.464,2.677,3.271,2.875,5.424c0.197,2.149-0.432,4.078-1.889,5.786C55.252,316.773,53.447,317.701,51.293,317.848z
		 M54.058,312.818c0.883-1.037,1.306-2.205,1.265-3.504c-0.042-1.299-0.548-2.363-1.518-3.191c-0.972-0.826-2.101-1.156-3.39-0.994
		c-1.29,0.165-2.377,0.767-3.26,1.803c-0.886,1.037-1.304,2.203-1.257,3.498c0.044,1.291,0.553,2.354,1.524,3.182
		c0.969,0.826,2.098,1.161,3.383,1.001C52.087,314.454,53.173,313.856,54.058,312.818z"/>
	<path fill="#242422" d="M70.757,321.95c-1.406,2.006-3.109,2.743-5.105,2.215l0.027,6.698l-3.434-2.412l0.025-5.938l-1.934-1.355
		l-2.8,3.99l-2.793-1.959l8.777-12.509l4.743,3.327c1.945,1.365,3.102,2.666,3.472,3.902
		C72.104,319.148,71.777,320.496,70.757,321.95z M66.348,321.077c0.565-0.067,1.083-0.438,1.558-1.113
		c0.471-0.674,0.618-1.263,0.434-1.764c-0.181-0.502-0.72-1.066-1.615-1.694l-2.094-1.468l-2.6,3.703l2.041,1.433
		C65.026,320.842,65.786,321.145,66.348,321.077z"/>
	<path fill="#242422" d="M85.315,327.059c0.585,1.885,0.281,3.855-0.916,5.907c-1.199,2.052-2.761,3.318-4.685,3.797
		c-1.927,0.479-4.149-0.017-6.665-1.485l-4.514-2.633l7.704-13.199l4.665,2.723C83.259,323.54,84.729,325.172,85.315,327.059z
		 M78.574,333.642c1.12-0.259,2.058-1.034,2.816-2.331c0.758-1.296,0.977-2.504,0.66-3.627c-0.316-1.121-1.222-2.119-2.721-2.993
		l-1.643-0.957l-4.683,8.024l1.869,1.092C76.221,333.635,77.454,333.899,78.574,333.642z"/>
	<path fill="#242422" d="M99.362,333.409c0.563,1.288,0.433,2.782-0.395,4.478c-0.827,1.697-1.926,2.699-3.297,3.004
		c-1.374,0.303-3.075-0.041-5.105-1.03l-1.829-0.89l-1.866,3.832l-3.067-1.492l6.695-13.74l4.854,2.365
		C97.462,330.963,98.798,332.122,99.362,333.409z M94.478,337.718c0.567-0.232,1.045-0.746,1.432-1.538
		c0.385-0.795,0.42-1.474,0.107-2.041c-0.316-0.566-0.979-1.096-1.987-1.589l-1.75-0.851l-2.25,4.617l2.063,1.006
		C93.117,337.82,93.911,337.953,94.478,337.718z"/>
	<path fill="#242422" d="M113.068,343.139c-0.92,2.271-2.413,3.373-4.476,3.305l1.534,6.521l-3.893-1.578l-1.308-5.791l-2.189-0.888
		l-1.831,4.52l-3.161-1.28l5.74-14.164l5.37,2.175c2.201,0.894,3.621,1.901,4.26,3.024
		C113.751,340.107,113.737,341.491,113.068,343.139z M108.579,343.278c0.532-0.192,0.955-0.671,1.264-1.434
		c0.309-0.765,0.318-1.368,0.028-1.817c-0.291-0.448-0.941-0.876-1.954-1.287l-2.371-0.963l-1.701,4.195l2.31,0.936
		C107.235,343.348,108.044,343.472,108.579,343.278z"/>
	<path fill="#242422" d="M128.41,342.975l-0.959,2.884l-7.22-2.401l-0.992,2.988l6.492,2.159l-0.917,2.759l-6.493-2.159l-1.001,3.01
		l7.448,2.475l-0.95,2.865L113.131,354l4.822-14.502L128.41,342.975z"/>
	<path fill="#242422" d="M133.892,347.682c-0.386,0.174-0.637,0.477-0.752,0.904c-0.116,0.43-0.017,0.822,0.304,1.181
		c0.318,0.358,1.129,0.899,2.438,1.622c1.306,0.723,2.254,1.533,2.842,2.431c0.588,0.899,0.705,2.011,0.347,3.332
		c-0.359,1.322-1.144,2.264-2.357,2.817c-1.214,0.555-2.63,0.615-4.25,0.178c-2.335-0.629-4.206-2.063-5.61-4.301l2.613-1.876
		c1.215,1.823,2.498,2.917,3.848,3.282c0.604,0.162,1.116,0.159,1.529-0.008c0.416-0.166,0.684-0.471,0.804-0.915
		c0.119-0.444,0.03-0.844-0.265-1.204c-0.295-0.357-0.948-0.818-1.961-1.377c-1.606-0.872-2.719-1.741-3.337-2.611
		c-0.618-0.869-0.739-2.005-0.36-3.403c0.378-1.401,1.173-2.345,2.384-2.833c1.211-0.488,2.57-0.529,4.076-0.123
		c0.985,0.268,1.924,0.702,2.818,1.306c0.893,0.603,1.623,1.313,2.187,2.13l-2.316,1.955c-1.02-1.314-2.21-2.158-3.576-2.527
		C134.747,347.494,134.28,347.506,133.892,347.682z"/>
	<path fill="#242422" d="M147.289,350.991c-0.377,0.194-0.611,0.511-0.702,0.946c-0.093,0.434,0.03,0.822,0.367,1.162
		c0.337,0.338,1.178,0.834,2.523,1.484c1.346,0.65,2.335,1.408,2.973,2.272c0.634,0.864,0.811,1.969,0.527,3.308
		c-0.286,1.34-1.018,2.32-2.2,2.941c-1.183,0.623-2.594,0.758-4.232,0.411c-2.368-0.502-4.313-1.831-5.837-3.987l2.504-2.018
		c1.313,1.754,2.654,2.777,4.022,3.065c0.612,0.13,1.12,0.103,1.527-0.089c0.404-0.19,0.655-0.508,0.75-0.957
		c0.095-0.451-0.014-0.846-0.331-1.188c-0.313-0.344-0.992-0.768-2.031-1.271c-1.652-0.781-2.812-1.59-3.477-2.424
		s-0.846-1.959-0.546-3.378c0.299-1.418,1.044-2.405,2.226-2.958c1.183-0.554,2.535-0.67,4.062-0.347
		c0.998,0.212,1.959,0.595,2.886,1.147c0.925,0.556,1.691,1.225,2.3,2.008l-2.207,2.082c-1.087-1.26-2.324-2.035-3.707-2.328
		C148.132,350.757,147.667,350.796,147.289,350.991z"/>
	<path fill="#242422" d="M178.139,368.129l-1.055-3.437l-6.37-0.692l-1.769,3.128l-3.607-0.391l8.217-14.479l3.28,0.355
		l4.913,15.906L178.139,368.129z M174.714,356.959l-2.392,4.203l3.801,0.414L174.714,356.959z"/>
	<path fill="#242422" d="M195.326,353.919l-0.163,2.991l-7.073-0.384l-0.179,3.298l6.725,0.365l-0.163,2.99l-6.725-0.365
		l-0.326,5.982l-3.405-0.186l0.83-15.262L195.326,353.919z"/>
	<path fill="#242422" d="M208.414,354.077l-0.035,2.995l-7.084-0.086l-0.039,3.303l6.732,0.078l-0.034,2.996l-6.734-0.079
		l-0.07,5.988l-3.412-0.039l0.181-15.282L208.414,354.077z"/>
	<path fill="#242422" d="M211.109,353.939l3.409-0.102l0.462,15.275l-3.41,0.104L211.109,353.939z"/>
	<path fill="#242422" d="M219.051,368.963l-0.998-15.248l3.403-0.224l0.801,12.217l6.501-0.425l0.199,3.031L219.051,368.963z"/>
	<path fill="#242422" d="M230.254,352.804l3.393-0.347l1.546,15.205l-3.392,0.344L230.254,352.804z"/>
	<path fill="#242422" d="M250.132,365.678l-1.882-3.062l-6.34,0.924l-0.93,3.473l-3.592,0.525l4.329-16.076l3.268-0.477
		l8.737,14.168L250.132,365.678z M244.019,355.72l-1.265,4.669l3.785-0.551L244.019,355.72z"/>
	<path fill="#242422" d="M258.752,351.517l2.408,12.093l-3.345,0.668l-2.408-12.094l-4.245,0.846l-0.576-2.896l11.835-2.356
		l0.575,2.893L258.752,351.517z"/>
	<path fill="#242422" d="M275.28,344.531l0.755,2.943l-7.373,1.888l0.781,3.049l6.63-1.696l0.723,2.816l-6.63,1.697l0.786,3.071
		l7.603-1.945l0.748,2.921l-10.908,2.793l-3.789-14.807L275.28,344.531z"/>
	<path fill="#242422" d="M299.147,337.893c1.322,0.479,2.313,1.604,2.975,3.371c0.657,1.769,0.626,3.254-0.099,4.457
		c-0.726,1.207-2.148,2.203-4.262,2.99l-1.907,0.712l1.49,3.994l-3.194,1.192l-5.344-14.316l5.06-1.89
		C296.064,337.584,297.826,337.414,299.147,337.893z M298.904,344.401c0.22-0.574,0.178-1.274-0.131-2.099
		c-0.309-0.828-0.775-1.322-1.403-1.482c-0.63-0.162-1.468-0.049-2.521,0.344l-1.821,0.681l1.794,4.812l2.152-0.801
		C298.039,345.458,298.68,344.973,298.904,344.401z"/>
	<path fill="#242422" d="M308.526,349.072l-6.181-13.977l3.118-1.379l4.952,11.197l5.957-2.635l1.23,2.779L308.526,349.072z"/>
	<path fill="#242422" d="M321.908,338.496c0.831,0.365,1.673,0.323,2.525-0.121c0.852-0.443,1.364-1.11,1.536-1.996
		c0.17-0.887-0.028-1.873-0.595-2.958l-3.902-7.482l3.022-1.577l3.953,7.58c1.026,1.963,1.271,3.754,0.734,5.375
		c-0.536,1.619-1.651,2.869-3.344,3.752c-1.694,0.886-3.361,1.08-5.007,0.59c-1.643-0.489-2.975-1.709-3.993-3.662l-3.954-7.577
		l3.024-1.577l3.902,7.481C320.378,337.408,321.079,338.134,321.908,338.496z"/>
	<path fill="#242422" d="M339.568,323.896l2.907-1.824l2.881,4.592c-0.382,2.237-1.712,4.068-3.982,5.495
		c-1.901,1.192-3.893,1.567-5.973,1.115c-2.079-0.448-3.722-1.633-4.929-3.552c-1.207-1.92-1.552-3.933-1.045-6.043
		c0.509-2.109,1.691-3.748,3.551-4.914c1.857-1.167,3.854-1.568,5.992-1.207l-0.139,3.109c-0.899-0.142-1.652-0.156-2.26-0.042
		c-0.608,0.116-1.195,0.351-1.763,0.707c-1.101,0.69-1.79,1.646-2.073,2.865c-0.285,1.22-0.044,2.439,0.723,3.661
		c0.768,1.223,1.742,1.974,2.926,2.255c1.186,0.281,2.275,0.109,3.276-0.521c1-0.627,1.713-1.341,2.139-2.143L339.568,323.896z"/>
	<path fill="#242422" d="M341.249,313.959l2.716-2.061l9.237,12.177l-2.721,2.062L341.249,313.959z"/>
	<path fill="#242422" d="M354.671,302.894l2.559-2.254l10.104,11.466l-2.558,2.254l-11.789-2.371l6.329,7.186l-2.56,2.254
		l-10.104-11.465l2.395-2.11l12.13,2.421L354.671,302.894z"/>
	<path fill="#242422" d="M364.145,297.767c-0.026,0.421,0.126,0.786,0.449,1.088c0.327,0.303,0.727,0.396,1.19,0.274
		c0.464-0.113,1.321-0.584,2.563-1.408c1.25-0.822,2.407-1.283,3.474-1.391c1.07-0.102,2.106,0.311,3.111,1.24
		c1.008,0.931,1.478,2.061,1.403,3.395c-0.069,1.334-0.674,2.616-1.812,3.844c-1.639,1.779-3.773,2.771-6.409,2.979l-0.452-3.184
		c2.178-0.232,3.742-0.859,4.69-1.887c0.425-0.463,0.659-0.916,0.706-1.359c0.045-0.445-0.103-0.825-0.441-1.137
		c-0.335-0.311-0.732-0.418-1.187-0.325c-0.454,0.098-1.167,0.465-2.132,1.102c-1.516,1.018-2.802,1.599-3.86,1.745
		c-1.057,0.146-2.116-0.273-3.18-1.26c-1.068-0.982-1.534-2.127-1.407-3.428c0.129-1.296,0.723-2.518,1.782-3.666
		c0.693-0.748,1.511-1.381,2.459-1.893c0.95-0.511,1.92-0.826,2.902-0.947l0.663,2.957c-1.641,0.294-2.938,0.958-3.899,1.997
		C364.372,296.922,364.168,297.342,364.145,297.767z"/>
</g>
</svg>
